<svg width="500" height="500" xmlns="http://www.w3.org/2000/svg" data-name="Layer 1">
 <title>lookup</title>

 <g>
  <title>Layer 1</title>
  <rect id="svg_3" height="630" width="805" y="-27" x="-43" fill="#000000"/>
  <path fill="#ffffff" id="svg_1" d="m117.47416,175.19078a10.02592,10.02592 0 0 1 -9.47705,-10.31865a9.84297,9.84297 0 0 1 9.47705,-10.31864l161.54905,0a9.95274,9.95274 0 0 1 9.47706,10.31864a9.80637,9.80637 0 0 1 -9.44047,10.31865l-161.58564,0zm220.09457,93.19715a90.81874,90.81874 0 0 1 76.036,140.54584l39.33527,42.84801l-27.15049,24.77207l-37.90822,-41.71368a90.81874,90.81874 0 1 1 -50.31256,-166.45224zm48.30006,42.51869a68.27871,68.27871 0 1 0 20.01525,48.30005a68.27871,68.27871 0 0 0 -20.01525,-48.30005zm-268.28485,-80.50009a9.98933,9.98933 0 0 1 -9.44047,-10.31865a9.80637,9.80637 0 0 1 9.44047,-10.24547l80.79282,0a10.02592,10.02592 0 0 1 9.62342,10.39183a9.80637,9.80637 0 0 1 -9.44047,10.31865l-80.97577,-0.14636zm232.24276,-140.80198l33.81004,0a24.29639,24.29639 0 0 1 24.18662,24.18662l0,115.00535c-0.73182,7.57433 -19.28343,7.6841 -20.85684,0l0,-115.00535a3.36637,3.36637 0 0 0 -3.43955,-3.43955l-33.81004,0l0,118.4449c-1.79296,6.8791 -17.27093,7.90365 -20.74707,0l0,-177.72224a3.36637,3.36637 0 0 0 -3.43955,-3.43955l-254.45347,0a3.6591,3.6591 0 0 0 -2.48819,0.98795a3.6591,3.6591 0 0 0 -0.95136,2.4516l0,287.4951a3.6591,3.6591 0 0 0 0.95136,2.45159a3.6591,3.6591 0 0 0 2.48819,0.98796l134.58152,0c10.46501,1.06113 10.97728,19.13706 0,20.74706l-79.98782,0l0,38.53027a3.36637,3.36637 0 0 0 3.43955,3.43955l76.54827,0c7.57432,0.8416 10.02592,18.07593 0,20.74707l-76.40191,0a24.22321,24.22321 0 0 1 -24.18662,-24.18662l0,-38.53027l-33.88322,0a23.74753,23.74753 0 0 1 -17.05138,-7.31819a24.00366,24.00366 0 0 1 -7.13524,-16.86842l0,-287.4951a23.74753,23.74753 0 0 1 7.31819,-16.86843a23.96707,23.96707 0 0 1 16.86843,-7.31819l254.49006,0a23.82071,23.82071 0 0 1 17.05139,7.31819a23.93048,23.93048 0 0 1 7.09864,17.05138l0,38.34732zm-232.35254,30.22412a10.02592,10.02592 0 0 1 -9.47705,-10.31864a9.84297,9.84297 0 0 1 9.47705,-10.31865l161.54905,0a9.98933,9.98933 0 0 1 9.47706,10.31865a9.84297,9.84297 0 0 1 -9.44047,10.31864l-161.58564,0z"/>
 </g>
</svg>