<svg width="500" height="500" xmlns="http://www.w3.org/2000/svg" data-name="Layer 1">
 <title>lookup</title>

 <g>
  <title>Layer 1</title>
  <ellipse stroke="null" ry="249" rx="248.49999" id="svg_13" cy="252" cx="249.49999" fill="#000000"/>
  <path style="vector-effect: non-scaling-stroke;" stroke="null" fill="#ffffff" id="svg_1" d="m144.57854,182.84635a8.61813,8.70664 0 0 1 -8.14633,-8.96085a8.46087,8.54776 0 0 1 8.14633,-8.96084l138.86517,0a8.55523,8.64309 0 0 1 8.14634,8.96084a8.42941,8.51598 0 0 1 -8.11489,8.96085l-138.89662,0zm189.19003,80.93359a78.06644,78.86814 0 0 1 65.35942,122.05179l33.81201,37.20975l-23.33816,21.51238l-32.58534,-36.22469a78.06644,78.86814 0 1 1 -43.24793,-144.54923zm41.51801,36.92377a58.69137,59.2941 0 1 0 17.20481,41.94438a58.69137,59.2941 0 0 0 -17.20481,-41.94438zm-230.61367,-69.9073a8.58668,8.67486 0 0 1 -8.11489,-8.96085a8.42941,8.51598 0 0 1 8.11489,-8.8973l69.44831,0a8.61813,8.70664 0 0 1 8.27215,9.0244a8.42941,8.51598 0 0 1 -8.11489,8.96085l-69.60557,-0.1271zm199.63243,-122.27422l29.06261,0a20.88482,21.09929 0 0 1 20.79046,21.00397l0,99.8721c-0.62906,6.57764 -16.57575,6.67297 -17.92823,0l0,-99.8721a2.89368,2.9234 0 0 0 -2.95659,-2.98695l-29.06261,0l0,102.85905c-1.5412,5.9739 -14.84584,6.86363 -17.83387,0l0,-154.33624a2.89368,2.9234 0 0 0 -2.95659,-2.98695l-218.72443,0a3.14531,3.17761 0 0 0 -2.13881,0.85795a3.14531,3.17761 0 0 0 -0.81777,2.129l0,249.66439a3.14531,3.17761 0 0 0 0.81777,2.12899a3.14531,3.17761 0 0 0 2.13881,0.85796l115.68428,0c8.99557,0.9215 9.43591,16.61887 0,18.01701l-68.75634,0l0,33.46017a2.89368,2.9234 0 0 0 2.95659,2.98695l65.79976,0c6.51077,0.73086 8.61813,15.69737 0,18.01702l-65.67395,0a20.82191,21.03574 0 0 1 -20.79046,-21.00397l0,-33.46017l-29.12551,0a20.41302,20.62266 0 0 1 -14.65711,-6.35521a20.63319,20.84508 0 0 1 -6.13335,-14.64875l0,-249.66439a20.41302,20.62266 0 0 1 6.29061,-14.64876a20.60174,20.81331 0 0 1 14.49985,-6.35521l218.75588,0a20.47593,20.68621 0 0 1 14.65712,6.35521a20.57029,20.78153 0 0 1 6.10189,14.80763l0,33.3013zm-199.72679,26.24701a8.61813,8.70664 0 0 1 -8.14633,-8.96084a8.46087,8.54776 0 0 1 8.14633,-8.96085l138.86517,0a8.58668,8.67486 0 0 1 8.14634,8.96085a8.46087,8.54776 0 0 1 -8.11489,8.96084l-138.89662,0z"/>
 </g>
</svg>